<?xml version="1.0" standalone="no"?>
<!DOCTYPE svg PUBLIC "-//W3C//DTD SVG 20010904//EN"
 "http://www.w3.org/TR/2001/REC-SVG-20010904/DTD/svg10.dtd">
<svg version="1.0" xmlns="http://www.w3.org/2000/svg"
 width="767.000000pt" height="767.000000pt" viewBox="0 0 767.000000 767.000000"
 preserveAspectRatio="xMidYMid meet">
<metadata>
Created by potrace 1.14, written by Peter Selinger 2001-2017
</metadata>
<g transform="translate(0.000000,767.000000) scale(0.100000,-0.100000)"
fill="#000000" stroke="none">
<path d="M3678 7405 c-2 -2 -39 -6 -83 -9 -162 -12 -274 -28 -455 -67 -52 -11
-102 -22 -110 -24 -43 -9 -237 -69 -320 -98 -89 -32 -115 -43 -215 -85 -90
-38 -304 -148 -398 -204 -265 -160 -468 -319 -687 -538 -83 -84 -123 -127
-221 -240 -48 -56 -169 -221 -231 -315 -89 -137 -135 -217 -211 -371 -58 -119
-167 -381 -167 -403 0 -6 -5 -22 -12 -38 -6 -15 -12 -32 -14 -38 -20 -67 -56
-193 -59 -205 -23 -99 -34 -151 -39 -180 -3 -19 -8 -46 -11 -60 -10 -47 -14
-75 -20 -125 -3 -27 -8 -61 -10 -75 -12 -79 -19 -220 -19 -410 0 -287 13 -434
65 -695 23 -113 22 -109 43 -187 9 -32 22 -82 30 -110 28 -103 105 -308 167
-445 363 -798 1004 -1425 1814 -1774 101 -43 346 -131 403 -144 9 -2 51 -13
92 -25 68 -18 204 -47 255 -55 11 -2 38 -6 60 -10 22 -3 54 -8 70 -10 17 -2
46 -6 65 -9 193 -28 670 -28 850 -1 14 2 45 7 70 10 532 73 1086 293 1525 607
255 182 515 426 700 657 319 397 552 865 670 1345 39 160 38 156 65 328 27
174 34 280 34 518 0 249 -9 384 -41 565 -8 50 -17 104 -20 120 -10 63 -84 334
-116 430 -104 302 -228 554 -401 815 -432 648 -1069 1135 -1806 1380 -129 43
-341 100 -425 114 -16 3 -40 7 -52 10 -11 2 -43 8 -70 12 -26 3 -56 8 -65 10
-9 1 -48 6 -85 10 -37 3 -79 8 -93 10 -30 5 -517 13 -522 9z"/>
</g>
</svg>
